<svg width="16" height="16" fill="none" xmlns="http://www.w3.org/2000/svg"><path d="M13.93 0H2.07C.942 0 0 .941 0 2.07v11.86C0 15.058.941 16 2.07 16h11.765c1.13 0 2.07-.847 2.165-2.07V2.07C16 .942 15.059 0 13.93 0Zm-.095 15.059H2.071c-.565 0-1.13-.565-1.13-1.13V2.071c0-.565.565-1.13 1.13-1.13h11.858c.565 0 1.13.565 1.13 1.13v11.764c-.094.753-.565 1.224-1.224 1.224Z" fill="#575757"/><path d="M10.165 6.961c-.095-.094-.189-.094-.189-.094-.05 0-.128.094-.188.188l-2.541 3.2-1.788-1.882c-.094-.094-.094-.094-.189-.094-.094 0-.188.094-.282.188l-2.447 2.918v1.412c0 .188.094.376.188.47a.719.719 0 0 0 .47.188h9.695c.094 0 .376 0 .47-.188.095-.094.189-.376.189-.47V9.69l-3.389-2.73ZM5.083 5.645c.94 0 1.6-.753 1.6-1.6 0-.94-.753-1.6-1.6-1.6-.942 0-1.6.753-1.6 1.6-.095.941.658 1.6 1.6 1.6Z" fill="#575757"/></svg>