<svg width="40" height="40" fill="none" xmlns="http://www.w3.org/2000/svg"><path d="M39.512 7.532H28.488V3.047c0-1.658-1.366-3.023-3.122-3.023h-9.951c-.78-.098-1.561.097-2.147.682a3.744 3.744 0 0 0-1.073 2.243v4.485H.488c-.293 0-.488.195-.488.488 0 .292.195.585.488.585h5.951v26.618c0 1.267.488 2.437 1.268 3.413.78.877 1.952 1.462 3.025 1.462h19.22c1.17 0 2.243-.487 3.024-1.462.78-.878 1.268-2.146 1.268-3.413V8.507h5.268c.293 0 .488-.195.488-.488 0-.292-.195-.487-.488-.487ZM13.171 3.144c0-.682.292-1.268.78-1.658.39-.39.878-.487 1.366-.487h10.049c1.268 0 2.146.877 2.146 2.048v4.485H13.171V3.144Zm20.097 32.078c0 .975-.39 2.048-.975 2.73a3.117 3.117 0 0 1-2.342 1.073h-19.22c-.877 0-1.755-.39-2.34-1.073-.684-.682-.976-1.755-.976-2.73V8.507h25.853v26.715Z" fill="#575757"/></svg>