<svg width="16" height="16" fill="none" xmlns="http://www.w3.org/2000/svg"><path d="M12.8 14.536c0 .195-.097.293-.194.39-.097.098-.29.195-.388.195H1.552c-.194 0-.291-.097-.388-.195-.097-.098-.194-.293-.194-.39V4.78c0-.195.097-.293.194-.39.097-.098.29-.196.388-.196h8.145V3.22H1.552c-.388 0-.776.195-1.067.488C.194 3.999 0 4.389 0 4.78v9.658c0 .39.194.78.485 1.073.29.293.679.488 1.067.488h10.57c.387 0 .775-.195 1.066-.488a1.62 1.62 0 0 0 .485-1.17V6.243h-.97v8.293h.097Z" fill="#575757"/><path d="m7.369 7.607-.582 3.122 2.91-1.17 5.042-5.952-2.328-1.95-5.042 5.95ZM16 1.366c0-.39-.194-.78-.582-.976-.194-.097-.291-.195-.485-.292C14.739 0 14.545 0 14.35 0c-.194 0-.388.098-.582.195-.194.098-.29.195-.485.39l-.679.78 2.328 1.952.678-.78c.291-.39.388-.78.388-1.171Z" fill="#575757"/></svg>