<svg width="16" height="13" fill="none" xmlns="http://www.w3.org/2000/svg"><path d="M13.36 9.592C15.06 8.074 16 6.354 16 6.354s-3-5.5-8-5.5c-.96.003-1.909.203-2.79.588l.77.771A5.944 5.944 0 0 1 8 1.854c2.12 0 3.88 1.168 5.169 2.457a13.13 13.13 0 0 1 1.66 2.043c-.058.087-.122.183-.195.288-.335.48-.83 1.12-1.465 1.755-.165.165-.337.328-.517.486l.708.709Z" fill="#9C9C9C"/><path d="M11.297 7.53a3.5 3.5 0 0 0-4.474-4.474l.823.823a2.5 2.5 0 0 1 2.83 2.829l.821.822ZM8.354 8.829l.822.822a3.5 3.5 0 0 1-4.474-4.474L5.525 6a2.5 2.5 0 0 0 2.83 2.829Z" fill="#9C9C9C"/><path d="M3.35 3.824c-.18.16-.353.322-.518.487a13.134 13.134 0 0 0-1.66 2.043l.195.288c.335.48.83 1.12 1.465 1.755C4.121 9.686 5.881 10.854 8 10.854c.716 0 1.39-.133 2.02-.36l.77.772a7.03 7.03 0 0 1-2.79.588c-5 0-8-5.5-8-5.5s.939-1.721 2.641-3.238l.708.709.001-.001Zm10.296 8.884-12-12L2.354 0l12 12-.708.708Z" fill="#9C9C9C"/></svg>