<svg width="16" height="11" fill="none" xmlns="http://www.w3.org/2000/svg"><path d="M16 5.5S13 0 8 0 0 5.5 0 5.5 3 11 8 11s8-5.5 8-5.5Zm-14.827 0c.484-.735 1.04-1.42 1.66-2.043C4.12 2.168 5.88 1 8 1c2.12 0 3.879 1.168 5.168 2.457a13.13 13.13 0 0 1 1.66 2.043c-.058.087-.122.183-.195.288-.335.48-.83 1.12-1.465 1.755C11.879 8.832 10.119 10 8 10c-2.12 0-3.879-1.168-5.168-2.457A13.128 13.128 0 0 1 1.173 5.5Z" fill="#9C9C9C"/><path d="M8 3a2.5 2.5 0 1 0 0 5 2.5 2.5 0 0 0 0-5ZM4.5 5.5a3.5 3.5 0 1 1 7 0 3.5 3.5 0 0 1-7 0Z" fill="#9C9C9C"/></svg>