<svg width="16" height="14" fill="none" xmlns="http://www.w3.org/2000/svg"><path d="M14.2.5c-.9 0-1.5.5-1.7 1.2H.6c-.4 0-.6.2-.6.6 0 .4.2.6.6.6h11.8c.2.7 1 1.2 1.7 1.2 1 0 1.8-.8 1.8-1.8.1-1-.8-1.8-1.7-1.8Zm0 2.4c-.4 0-.6-.2-.6-.6 0-.4.2-.6.6-.6.4 0 .6.2.6.6 0 .4-.3.6-.6.6ZM14.2 6.4H7.3c-.3-.7-.9-1.2-1.8-1.2S4 5.7 3.8 6.4H.6c-.4 0-.6.2-.6.6 0 .4.2.6.6.6h3.2c.2.7 1 1.2 1.7 1.2S7 8.3 7.3 7.6h6.9c.4 0 .6-.2.6-.6 0-.4-.3-.6-.6-.6ZM5.5 7.6c-.3 0-.6-.2-.6-.6 0-.4.2-.6.6-.6.4 0 .6.2.6.6 0 .4-.2.6-.6.6ZM14.2 11.1h-2c-.2-.7-.9-1.2-1.7-1.2-.9 0-1.5.5-1.7 1.2H.6c-.4 0-.6.2-.6.6 0 .4.2.6.6.6h8.1c.2.7 1 1.2 1.7 1.2s1.5-.5 1.7-1.2h2c.4 0 .6-.2.6-.6.1-.3-.2-.6-.5-.6Zm-3.7 1.2c-.4 0-.6-.2-.6-.6 0-.4.2-.6.6-.6.4 0 .6.2.6.6 0 .4-.3.6-.6.6Z" fill="#575757"/></svg>